<svg width="231" height="110" viewBox="0 0 231 110" fill="none" xmlns="http://www.w3.org/2000/svg">
<path fill-rule="evenodd" clip-rule="evenodd" d="M163.306 87.5185L163.608 86.1115C163.773 85.3313 163.273 84.6969 162.485 84.6969C161.608 84.6969 160.838 85.3313 160.671 86.1115L158.947 94.1875C158.777 94.9703 159.279 95.6021 160.062 95.6021C160.942 95.6021 161.712 94.9703 161.879 94.1875L162.173 92.8726H166.365L166.056 94.341C165.592 96.5307 163.425 98.3035 161.226 98.3035H157.802C155.599 98.3035 154.198 96.5307 154.664 94.341L156.481 85.8378C156.95 83.6532 159.109 81.8779 161.309 81.8779H164.738C166.938 81.8779 168.34 83.6532 167.873 85.8378L167.534 87.5185H163.306ZM171.14 98.3163C168.938 98.3163 167.534 96.5588 168 94.3691C168.517 91.9312 168.573 91.2175 169.604 90.4629C171.231 89.2785 175.958 88.3908 176.549 87.8357C176.901 87.5032 177.048 86.4543 177.078 86.3034L177.218 85.6971C177.337 85.1548 176.898 84.7174 176.131 84.7174C175.418 84.7174 174.491 85.1548 174.344 85.8609L173.989 87.5185L169.47 87.5211L169.81 85.8967C170.276 83.712 172.443 81.9367 174.64 81.9367H178.637C180.837 81.9367 182.241 83.712 181.772 85.8967L179.595 96.1035C179.055 98.3188 177.59 98.3188 177.59 98.3188L171.14 98.3163ZM175.943 91.6371L175.319 94.5968C175.142 95.2414 174.397 95.5893 173.817 95.5893C172.656 95.5893 172.453 94.7272 172.567 94.1824L172.975 92.3149C173.031 92.0361 173.292 91.4708 173.948 91.1919C174.607 90.9106 175.033 90.8364 175.208 90.8006C175.862 90.6701 176.049 91.0589 175.943 91.6371ZM208.34 88.2245H205.489L206.044 85.669C206.214 84.9297 206.931 84.5511 207.823 84.5511C208.366 84.5511 209.035 85.0448 208.893 85.669L208.662 86.7408L208.34 88.2245ZM188.24 91.1126L184.279 109.58H179.542L185.741 80.5835L186.076 79.1842C186.542 76.9945 188.706 75.2038 190.906 75.2038H191.626L189.005 87.4725H193.015L194.457 80.5886L194.794 79.1893C195.263 76.9996 197.422 75.2089 199.62 75.2089H200.344L197.711 87.4827H200.877L201.247 85.8327C201.713 83.6507 203.877 81.8728 206.077 81.8728H210.071C212.271 81.8728 213.675 83.6507 213.209 85.8327L212.312 90.0485C212.312 90.0485 212.211 90.404 211.716 90.7494C211.311 91.0385 210.781 91.1126 210.781 91.1126H204.916L204.273 94.1619C204.08 95.0675 204.805 95.5305 205.345 95.5228C206.328 95.5151 206.888 95.0572 207.058 94.2924L207.37 92.8726H211.716L211.412 94.3052C210.946 96.4949 208.766 98.2677 206.569 98.2677H202.572C200.372 98.2677 198.968 96.4949 199.435 94.3052L200.119 91.0896L196.969 91.0871L192.995 109.585H188.258L192.214 91.0896L188.24 91.1126ZM204.65 75.8791C206.128 75.9559 210.773 77.4472 210.771 78.9463C210.771 79.3351 210.457 79.6549 210.059 79.6549H204.65C204.255 79.6549 203.938 79.3351 203.938 78.9463V76.5877C203.938 76.1989 204.255 75.8791 204.65 75.8791ZM15.0377 0.832014H31.8713L17.4631 67.7699H0.626953L15.0377 0.832014ZM214.218 8.41679C214.218 4.16522 217.682 0.722015 221.953 0.722015C226.226 0.722015 229.69 4.16522 229.69 8.41679C229.69 12.6658 226.226 16.1116 221.953 16.1116C217.682 16.1116 214.218 12.6658 214.218 8.41679ZM35.4119 4.15755C36.0582 1.06736 34.9531 0.844804 34.2106 0.811549L38.5976 0.808991C46.0311 0.796201 49.7896 5.55427 48.6821 11.837L47.1589 18.2604C46.1223 22.7678 42.6578 24.8756 36.636 26.0472C41.8823 27.6665 44.8577 32.793 43.5575 38.8787L40.3363 54.4141C38.7573 61.8096 31.448 67.7623 24.0146 67.7776L19.7821 67.7699C21.318 67.7699 22.0352 66.2837 22.4331 64.4316L35.4119 4.15755ZM194.731 0.832014H209.886L195.473 67.7699H180.317L194.731 0.832014ZM130.952 21.7906H145.38L135.438 67.7699H120.908L130.952 21.7906ZM55.5301 67.7776C48.0992 67.7904 43.3522 61.8709 44.9337 54.4755L51.987 21.7599L67.0921 21.7701L57.9099 64.4188C57.512 66.2658 57.5906 67.7623 59.1366 67.7623L55.5301 67.7776ZM86.9645 21.7778L71.796 21.7675L62.6214 64.4188C62.221 66.2658 61.5063 67.7699 59.9755 67.7699L63.7214 67.7776C71.1548 67.7623 78.4641 61.8096 80.0405 54.4141L86.9645 21.7778ZM103.028 67.7699H99.5707C101.102 67.7699 101.821 66.2837 102.219 64.4316L110.671 25.1161C111.374 22.1129 110.208 21.7496 109.47 21.7496L113.049 21.7445C120.485 21.7317 125.28 27.5105 123.701 34.9034L119.588 54.4141C118.009 61.8096 110.702 67.7623 103.266 67.7776L100.683 67.7827L103.028 67.7699ZM155.769 67.7699H140.228L149.377 25.1161C149.773 23.2691 149.712 21.765 148.181 21.765L152.279 21.7548C159.713 21.7394 164.475 27.5233 162.896 34.9162L155.769 67.7699ZM173.822 67.7776C166.388 67.7904 161.641 61.8709 163.225 54.4755L167.339 34.9469C168.92 27.5489 176.176 21.7471 183.61 21.7343L187.277 21.7496C185.744 21.7496 185.019 23.2666 184.623 25.1161L176.174 64.4316C175.773 66.2837 175.852 67.7699 177.383 67.7699L173.822 67.7776ZM95.1786 67.7776C87.7426 67.7904 82.9956 61.8709 84.5771 54.4755L88.6905 34.9469C90.2694 27.5489 97.528 21.7471 104.964 21.7343L108.626 21.7496C107.098 21.7496 106.376 23.2666 105.975 25.1161L97.5254 64.4316C97.1275 66.2837 97.2036 67.7699 98.7344 67.7699L95.1786 67.7776ZM211.032 21.7906H227.032L216.985 67.7699H200.983L211.032 21.7906ZM228.302 62.2265C228.302 61.4463 227.787 61.0856 226.662 61.0856H224.893L224.132 65.9332H224.997L225.316 63.9277H225.846L227.022 65.9332H228L226.723 63.8791C227.683 63.7998 228.302 63.1602 228.302 62.2265ZM227.453 62.3084C227.453 62.9454 226.948 63.3546 226.178 63.3546H225.41L225.668 61.7328H226.434C226.857 61.7328 227.115 61.7635 227.24 61.8275C227.374 61.8965 227.453 62.0807 227.453 62.3084ZM229.787 63.5107C229.787 65.4702 228.188 67.0613 226.218 67.0613C224.246 67.0613 222.642 65.4702 222.642 63.5107C222.642 61.5384 224.246 59.9498 226.218 59.9498C228.188 59.9498 229.787 61.5384 229.787 63.5107ZM230.448 63.5107C230.448 61.1777 228.55 59.2898 226.218 59.2898C223.874 59.2898 221.983 61.1777 221.983 63.5107C221.983 65.8309 223.874 67.7188 226.218 67.7188C228.55 67.7188 230.448 65.8309 230.448 63.5107Z" fill="#8D8D8D"/>
</svg>
